    <svg width="80mm" height="36mm" version="1.1" viewBox="0 0 80 36" style="font-size: 1.5px; font-family: monospace"
         xmlns="http://www.w3.org/2000/svg">
        <defs>
            <pattern id="characters" width="3.55" height="5.95" patternUnits="userSpaceOnUse" x="12.45" y="12.55">
                <rect width="2.95" height="5.55" fill-opacity="0.05"></rect>
            </pattern>
            <pattern id="pins" width="2.54" height="3.255" patternUnits="userSpaceOnUse" y="1.1">
                <path fill="#92926d"
                      d="M0,0.55c0,0 0.21,-0.52 0.87,-0.52 0.67,0 0.81,0.51 0.81,0.51v1.81h-1.869z"></path>
                <circle r="0.45" cx="0.827" cy="0.9" color="black"></circle>
            </pattern>
        </defs>
        <rect width="80" height="36" fill="#087f45"></rect>
        <rect x="4.95" y="5.7" width="71.2" height="25.2"></rect>
        <rect x="7.55" y="10.3" width="66" height="16" rx="1.5" ry="1.5" fill="#6cb201"></rect>
        <rect x="7.55" y="10.3" width="66" height="16" rx="1.5" ry="1.5" opacity="0"></rect>

        <rect x="7.55" y="-2.5" height="2.5" width="10.16" fill="url(#pins)" transform="rotate(90)"></rect>
        <text y="6.8" x="0.7" fill="white">1</text>
        <text y="8.9" x="2.3" fill="white">GND</text>
        <text y="11.4" x="2.3" fill="white">VCC</text>
        <text y="14" x="2.3" fill="white">SDA</text>
        <text y="16.6" x="2.3" fill="white">SCL</text>


        <rect x="12.45" y="12.55" width="56.2" height="11.5" fill="url(#characters)"></rect>
<!--        <path -->
<!--              transform="translate(12.45, 12.55)"-->
<!--              d="M 8.90 0.00h0.55v0.65h-0.55Z  M 8.30 0.70h0.55v0.65h-0.55Z  M 8.30 1.40h0.55v0.65h-0.55Z  M 8.30 2.10h0.55v0.65h-0.55Z  M 8.30 2.80h0.55v0.65h-0.55Z  M 8.30 3.50h0.55v0.65h-0.55Z  M 7.70 4.20h0.55v0.65h-0.55Z  M 8.30 4.20h0.55v0.65h-0.55Z-->
<!--                 M 8.90 4.20h0.55v0.65h-0.55Z  M 14.80 0.70h0.55v0.65h-0.55Z M 16.00 0.70h0.55v0.65h-0.55Z M 14.20 1.40h0.55v0.65h-0.55Z M 14.80 1.40h0.55v0.65h-0.55Z M 15.40 1.40h0.55v0.65h-0.55Z M 16.00 1.40h0.55v0.65h-0.55Z M 16.60 1.40h0.55v0.65h-0.55Z-->
<!--                 M 14.20 2.10h0.55v0.65h-0.55Z M 14.80 2.10h0.55v0.65h-0.55Z M 15.40 2.10h0.55v0.65h-0.55Z M 16.00 2.10h0.55v0.65h-0.55Z M 16.60 2.10h0.55v0.65h-0.55Z M 14.20 2.80h0.55v0.65h-0.55Z M 14.80 2.80h0.55v0.65h-0.55Z M 15.40 2.80h0.55v0.65h-0.55Z-->
<!--                 M 16.00 2.80h0.55v0.65h-0.55Z M 16.60 2.80h0.55v0.65h-0.55Z M 14.80 3.50h0.55v0.65h-0.55Z M 15.40 3.50h0.55v0.65h-0.55Z M 16.00 3.50h0.55v0.65h-0.55Z M 15.40 4.20h0.55v0.65h-0.55Z M 21.90 0.00h0.55v0.65h-0.55Z M 22.50 0.00h0.55v0.65h-0.55Z-->
<!--                 M 23.10 0.00h0.55v0.65h-0.55Z M 21.30 0.70h0.55v0.65h-0.55Z M 23.70 0.70h0.55v0.65h-0.55Z M 21.30 1.40h0.55v0.65h-0.55Z M 23.70 1.40h0.55v0.65h-0.55Z M 21.30 2.10h0.55v0.65h-0.55Z M 23.70 2.10h0.55v0.65h-0.55Z M 21.30 2.80h0.55v0.65h-0.55Z-->
<!--                 M 21.90 2.80h0.55v0.65h-0.55Z M 22.50 2.80h0.55v0.65h-0.55Z M 23.10 2.80h0.55v0.65h-0.55Z M 23.70 2.80h0.55v0.65h-0.55Z M 21.30 3.50h0.55v0.65h-0.55Z M 23.70 3.50h0.55v0.65h-0.55Z M 21.30 4.20h0.55v0.65h-0.55Z M 23.70 4.20h0.55v0.65h-0.55Z-->
<!--                 M 24.85 1.40h0.55v0.65h-0.55Z M 26.05 1.40h0.55v0.65h-0.55Z M 26.65 1.40h0.55v0.65h-0.55Z M 24.85 2.10h0.55v0.65h-0.55Z M 25.45 2.10h0.55v0.65h-0.55Z M 27.25 2.10h0.55v0.65h-0.55Z M 24.85 2.80h0.55v0.65h-0.55Z M 24.85 3.50h0.55v0.65h-0.55Z-->
<!--                 M 24.85 4.20h0.55v0.65h-0.55Z M 30.80 0.00h0.55v0.65h-0.55Z M 30.80 0.70h0.55v0.65h-0.55Z M 29.00 1.40h0.55v0.65h-0.55Z M 29.60 1.40h0.55v0.65h-0.55Z M 30.80 1.40h0.55v0.65h-0.55Z M 28.40 2.10h0.55v0.65h-0.55Z M 30.20 2.10h0.55v0.65h-0.55Z-->
<!--                 M 30.80 2.10h0.55v0.65h-0.55Z M 28.40 2.80h0.55v0.65h-0.55Z M 30.80 2.80h0.55v0.65h-0.55Z M 28.40 3.50h0.55v0.65h-0.55Z M 30.80 3.50h0.55v0.65h-0.55Z M 29.00 4.20h0.55v0.65h-0.55Z M 29.60 4.20h0.55v0.65h-0.55Z M 30.20 4.20h0.55v0.65h-0.55Z-->
<!--                 M 30.80 4.20h0.55v0.65h-0.55Z M 31.95 1.40h0.55v0.65h-0.55Z M 34.35 1.40h0.55v0.65h-0.55Z M 31.95 2.10h0.55v0.65h-0.55Z M 34.35 2.10h0.55v0.65h-0.55Z M 31.95 2.80h0.55v0.65h-0.55Z M 34.35 2.80h0.55v0.65h-0.55Z M 31.95 3.50h0.55v0.65h-0.55Z-->
<!--                 M 33.75 3.50h0.55v0.65h-0.55Z M 34.35 3.50h0.55v0.65h-0.55Z M 32.55 4.20h0.55v0.65h-0.55Z M 33.15 4.20h0.55v0.65h-0.55Z M 34.35 4.20h0.55v0.65h-0.55Z M 36.70 0.00h0.55v0.65h-0.55Z M 36.10 1.40h0.55v0.65h-0.55Z M 36.70 1.40h0.55v0.65h-0.55Z-->
<!--                 M 36.70 2.10h0.55v0.65h-0.55Z M 36.70 2.80h0.55v0.65h-0.55Z M 36.70 3.50h0.55v0.65h-0.55Z M 36.10 4.20h0.55v0.65h-0.55Z M 36.70 4.20h0.55v0.65h-0.55Z M 37.30 4.20h0.55v0.65h-0.55Z M 39.05 1.40h0.55v0.65h-0.55Z M 40.25 1.40h0.55v0.65h-0.55Z-->
<!--                 M 40.85 1.40h0.55v0.65h-0.55Z M 39.05 2.10h0.55v0.65h-0.55Z M 39.65 2.10h0.55v0.65h-0.55Z M 41.45 2.10h0.55v0.65h-0.55Z M 39.05 2.80h0.55v0.65h-0.55Z M 41.45 2.80h0.55v0.65h-0.55Z M 39.05 3.50h0.55v0.65h-0.55Z M 41.45 3.50h0.55v0.65h-0.55Z-->
<!--                 M 39.05 4.20h0.55v0.65h-0.55Z M 41.45 4.20h0.55v0.65h-0.55Z M 43.20 1.40h0.55v0.65h-0.55Z M 43.80 1.40h0.55v0.65h-0.55Z M 44.40 1.40h0.55v0.65h-0.55Z M 42.60 2.10h0.55v0.65h-0.55Z M 45.00 2.10h0.55v0.65h-0.55Z M 42.60 2.80h0.55v0.65h-0.55Z-->
<!--                 M 45.00 2.80h0.55v0.65h-0.55Z M 42.60 3.50h0.55v0.65h-0.55Z M 45.00 3.50h0.55v0.65h-0.55Z M 43.20 4.20h0.55v0.65h-0.55Z M 43.80 4.20h0.55v0.65h-0.55Z M 44.40 4.20h0.55v0.65h-0.55Z M 49.70 2.10h0.55v0.65h-0.55Z M 50.90 2.10h0.55v0.65h-0.55Z-->
<!--                 M 52.10 2.10h0.55v0.65h-0.55Z M 49.70 2.80h0.55v0.65h-0.55Z M 50.90 2.80h0.55v0.65h-0.55Z M 52.10 2.80h0.55v0.65h-0.55Z M 52.10 3.50h0.55v0.65h-0.55Z M 50.90 4.20h0.55v0.65h-0.55Z M 51.50 4.20h0.55v0.65h-0.55Z M 7.10 5.95h0.55v0.65h-0.55Z-->
<!--                 M 9.50 5.95h0.55v0.65h-0.55Z  M 7.10 6.65h0.55v0.65h-0.55Z  M 9.50 6.65h0.55v0.65h-0.55Z  M 7.10 7.35h0.55v0.65h-0.55Z  M 9.50 7.35h0.55v0.65h-0.55Z  M 7.10 8.05h0.55v0.65h-0.55Z  M 7.70 8.05h0.55v0.65h-0.55Z  M 8.30 8.05h0.55v0.65h-0.55Z-->
<!--                 M 8.90 8.05h0.55v0.65h-0.55Z  M 9.50 8.05h0.55v0.65h-0.55Z  M 7.10 8.75h0.55v0.65h-0.55Z  M 9.50 8.75h0.55v0.65h-0.55Z  M 7.10 9.45h0.55v0.65h-0.55Z  M 9.50 9.45h0.55v0.65h-0.55Z  M 7.10 10.15h0.55v0.65h-0.55Z M 9.50 10.15h0.55v0.65h-0.55Z-->
<!--                 M 11.25 7.35h0.55v0.65h-0.55Z M 11.85 7.35h0.55v0.65h-0.55Z M 12.45 7.35h0.55v0.65h-0.55Z M 10.65 8.05h0.55v0.65h-0.55Z M 13.05 8.05h0.55v0.65h-0.55Z M 10.65 8.75h0.55v0.65h-0.55Z M 11.25 8.75h0.55v0.65h-0.55Z M 11.85 8.75h0.55v0.65h-0.55Z-->
<!--                 M 12.45 8.75h0.55v0.65h-0.55Z M 13.05 8.75h0.55v0.65h-0.55Z M 10.65 9.45h0.55v0.65h-0.55Z M 11.25 10.15h0.55v0.65h-0.55Z M 11.85 10.15h0.55v0.65h-0.55Z M 12.45 10.15h0.55v0.65h-0.55Z M 14.80 5.95h0.55v0.65h-0.55Z M 15.40 5.95h0.55v0.65h-0.55Z-->
<!--                 M 15.40 6.65h0.55v0.65h-0.55Z M 15.40 7.35h0.55v0.65h-0.55Z M 15.40 8.05h0.55v0.65h-0.55Z M 15.40 8.75h0.55v0.65h-0.55Z M 15.40 9.45h0.55v0.65h-0.55Z M 14.80 10.15h0.55v0.65h-0.55Z M 15.40 10.15h0.55v0.65h-0.55Z M 16.00 10.15h0.55v0.65h-0.55Z-->
<!--                 M 18.35 5.95h0.55v0.65h-0.55Z M 18.95 5.95h0.55v0.65h-0.55Z M 18.95 6.65h0.55v0.65h-0.55Z M 18.95 7.35h0.55v0.65h-0.55Z M 18.95 8.05h0.55v0.65h-0.55Z M 18.95 8.75h0.55v0.65h-0.55Z M 18.95 9.45h0.55v0.65h-0.55Z M 18.35 10.15h0.55v0.65h-0.55Z-->
<!--                 M 18.95 10.15h0.55v0.65h-0.55Z M 19.55 10.15h0.55v0.65h-0.55Z M 21.90 7.35h0.55v0.65h-0.55Z M 22.50 7.35h0.55v0.65h-0.55Z M 23.10 7.35h0.55v0.65h-0.55Z M 21.30 8.05h0.55v0.65h-0.55Z M 23.70 8.05h0.55v0.65h-0.55Z M 21.30 8.75h0.55v0.65h-0.55Z-->
<!--                 M 23.70 8.75h0.55v0.65h-0.55Z M 21.30 9.45h0.55v0.65h-0.55Z M 23.70 9.45h0.55v0.65h-0.55Z M 21.90 10.15h0.55v0.65h-0.55Z M 22.50 10.15h0.55v0.65h-0.55Z M 23.10 10.15h0.55v0.65h-0.55Z M 25.45 8.75h0.55v0.65h-0.55Z M 26.05 8.75h0.55v0.65h-0.55Z-->
<!--                 M 26.05 9.45h0.55v0.65h-0.55Z M 25.45 10.15h0.55v0.65h-0.55Z M 31.95 5.95h0.55v0.65h-0.55Z M 34.35 5.95h0.55v0.65h-0.55Z M 31.95 6.65h0.55v0.65h-0.55Z M 34.35 6.65h0.55v0.65h-0.55Z M 31.95 7.35h0.55v0.65h-0.55Z M 34.35 7.35h0.55v0.65h-0.55Z-->
<!--                 M 31.95 8.05h0.55v0.65h-0.55Z M 33.15 8.05h0.55v0.65h-0.55Z M 34.35 8.05h0.55v0.65h-0.55Z M 31.95 8.75h0.55v0.65h-0.55Z M 33.15 8.75h0.55v0.65h-0.55Z M 34.35 8.75h0.55v0.65h-0.55Z M 31.95 9.45h0.55v0.65h-0.55Z M 33.15 9.45h0.55v0.65h-0.55Z-->
<!--                 M 34.35 9.45h0.55v0.65h-0.55Z M 32.55 10.15h0.55v0.65h-0.55Z M 33.75 10.15h0.55v0.65h-0.55Z M 36.10 7.35h0.55v0.65h-0.55Z M 36.70 7.35h0.55v0.65h-0.55Z M 37.30 7.35h0.55v0.65h-0.55Z M 35.50 8.05h0.55v0.65h-0.55Z M 37.90 8.05h0.55v0.65h-0.55Z-->
<!--                 M 35.50 8.75h0.55v0.65h-0.55Z M 37.90 8.75h0.55v0.65h-0.55Z M 35.50 9.45h0.55v0.65h-0.55Z M 37.90 9.45h0.55v0.65h-0.55Z M 36.10 10.15h0.55v0.65h-0.55Z M 36.70 10.15h0.55v0.65h-0.55Z M 37.30 10.15h0.55v0.65h-0.55Z M 39.05 7.35h0.55v0.65h-0.55Z-->
<!--                 M 40.25 7.35h0.55v0.65h-0.55Z M 40.85 7.35h0.55v0.65h-0.55Z M 39.05 8.05h0.55v0.65h-0.55Z M 39.65 8.05h0.55v0.65h-0.55Z M 41.45 8.05h0.55v0.65h-0.55Z M 39.05 8.75h0.55v0.65h-0.55Z M 39.05 9.45h0.55v0.65h-0.55Z M 39.05 10.15h0.55v0.65h-0.55Z-->
<!--                 M 43.20 5.95h0.55v0.65h-0.55Z M 43.80 5.95h0.55v0.65h-0.55Z M 43.80 6.65h0.55v0.65h-0.55Z M 43.80 7.35h0.55v0.65h-0.55Z M 43.80 8.05h0.55v0.65h-0.55Z M 43.80 8.75h0.55v0.65h-0.55Z M 43.80 9.45h0.55v0.65h-0.55Z M 43.20 10.15h0.55v0.65h-0.55Z-->
<!--                 M 43.80 10.15h0.55v0.65h-0.55Z M 44.40 10.15h0.55v0.65h-0.55Z M 48.55 5.95h0.55v0.65h-0.55Z M 48.55 6.65h0.55v0.65h-0.55Z M 46.75 7.35h0.55v0.65h-0.55Z M 47.35 7.35h0.55v0.65h-0.55Z M 48.55 7.35h0.55v0.65h-0.55Z M 46.15 8.05h0.55v0.65h-0.55Z-->
<!--                 M 47.95 8.05h0.55v0.65h-0.55Z M 48.55 8.05h0.55v0.65h-0.55Z M 46.15 8.75h0.55v0.65h-0.55Z M 48.55 8.75h0.55v0.65h-0.55Z M 46.15 9.45h0.55v0.65h-0.55Z M 48.55 9.45h0.55v0.65h-0.55Z M 46.75 10.15h0.55v0.65h-0.55Z M 47.35 10.15h0.55v0.65h-0.55Z-->
<!--                 M 47.95 10.15h0.55v0.65h-0.55Z M 48.55 10.15h0.55v0.65h-0.55Z M 50.90 5.95h0.55v0.65h-0.55Z M 50.90 6.65h0.55v0.65h-0.55Z M 50.90 7.35h0.55v0.65h-0.55Z M 50.90 8.05h0.55v0.65h-0.55Z M 50.90 10.15h0.55v0.65h-0.55Z"-->
<!--              fill="black">-->

<!--        </path>-->
        <!---->
<!--        <rect width="2.95" height="5.55" x="65.7" y="18.5" fill="black">-->
<!--            <animate attributeName="opacity" values="0;0;0;0;1;1;0;0;0;0" dur="1s" fill="freeze"-->
<!--                     repeatCount="indefinite"></animate>-->
<!--        </rect>-->
        <!---->
    </svg>
